<svg width="750" height="185" viewBox="0 0 750 185" fill="none" xmlns="http://www.w3.org/2000/svg">
<path d="M42.1226 128.75C35.5926 139.06 29.8626 147.5 29.3926 147.5C28.9226 147.5 27.5726 146.14 26.3926 144.48L24.2426 141.47L38.1826 119.23C45.8526 107.01 52.4226 96.46 52.7826 95.81C53.4726 94.57 43.4026 77.34 42.2326 77.76C41.8626 77.89 35.6326 87.45 28.3926 98.99C21.1526 110.54 14.7126 120.31 14.0826 120.7C13.3426 121.16 12.4726 119.82 11.6126 116.87C10.3826 112.65 10.4526 112.08 12.6026 108.54C24.9226 88.21 42.0026 61.75 42.5826 62.11C42.9726 62.36 46.5326 67.72 50.4726 74.04C54.4126 80.36 57.9326 85.71 58.2926 85.93C58.6426 86.15 64.4526 77.48 71.1826 66.66C77.9226 55.85 85.3926 43.9 87.7826 40.12L92.1327 33.23L96.5826 40.12C99.0226 43.9 106.363 55.55 112.873 66C119.393 76.45 125.043 85.37 125.433 85.82C125.823 86.27 129.663 80.98 133.973 74.05C140.143 64.12 142.043 61.73 142.983 62.73C143.643 63.43 150.353 73.9 157.913 86C165.463 98.1 172.213 108.68 172.913 109.5C173.953 110.72 173.873 112.01 172.483 116.5L170.783 122L166.283 115C163.803 111.15 157.533 101.15 152.343 92.79C147.153 84.42 142.673 77.56 142.383 77.54C141.793 77.49 131.403 93.8 131.403 94.78C131.403 95.14 137.883 105.76 145.803 118.37L160.203 141.32L154.673 147.94L150.213 140.97C139.973 124.95 127.633 105.39 111.443 79.5C101.983 64.38 93.7126 51.45 93.0726 50.79C92.1726 49.85 87.5726 56.47 72.9426 79.79C62.5126 96.4 48.6426 118.44 42.1226 128.75ZM213.903 79L213.363 117.5H204.403V65.41L211.013 65.7L217.633 66L221.543 76C227.963 92.43 230.593 98.5 231.273 98.5C231.623 98.5 234.823 91.07 238.373 82L244.833 65.5H258.433L257.903 117H248.903L247.903 79.74L240.493 98.67C234.083 115.03 232.803 117.56 231.083 117.3C229.513 117.06 227.513 113.04 221.503 98L213.903 79ZM55.4626 137.72C48.5526 148.57 42.3426 157.67 41.6626 157.94C40.9826 158.21 39.2326 157.4 37.7726 156.14L35.1226 153.86L51.5126 128.11C60.5226 113.95 68.3526 102.32 68.9026 102.26C69.4526 102.2 74.8526 110.11 80.9026 119.82C86.9526 129.54 92.1226 137.47 92.4026 137.45C92.6826 137.43 97.8526 129.33 103.903 119.46C109.953 109.59 115.163 101.51 115.473 101.51C116.233 101.5 148.403 151.98 148.403 153.19C148.403 154.99 143.423 158.92 142.423 157.92C141.893 157.39 135.873 148.21 129.043 137.52C122.213 126.82 116.233 117.94 115.753 117.78C115.283 117.63 110.023 125.37 104.063 134.99C98.1127 144.61 92.9327 152.67 92.5527 152.91C92.1827 153.14 86.9326 145.38 80.8926 135.66C74.8426 125.95 69.4826 118 68.9626 118C68.4526 118 62.3726 126.88 55.4626 137.72ZM294.473 117.39C288.773 118.61 288.243 118.62 283.903 117.56C266.073 113.23 260.163 90.7 273.723 78.8C279.713 73.53 290.563 71.87 298.183 75.05C317.493 83.12 314.873 113.02 294.473 117.39ZM712.773 112.25C711.293 117.4 711.193 117.5 707.453 117.5C705.363 117.5 703.183 116.94 702.623 116.25C702.053 115.56 698.923 106 695.663 95L689.733 75L694.223 74.69C696.693 74.52 698.993 74.84 699.343 75.41C699.693 75.97 701.533 82.52 703.433 89.97C705.333 97.41 707.113 103.5 707.393 103.5C707.673 103.49 709.703 97.08 711.903 89.25L715.903 75L719.653 74.69C721.713 74.52 723.403 74.52 723.403 74.69C723.403 75.63 731.413 102.84 731.803 103.23C732.063 103.49 732.733 101.97 733.293 99.85C733.863 97.73 735.583 91.28 737.123 85.5L739.933 75L744.673 74.7C747.273 74.53 749.403 74.67 749.403 75C749.403 76.62 737.213 116.09 736.493 116.81C736.043 117.26 733.943 117.49 731.823 117.32L727.983 117L725.273 107.5C723.783 102.28 722.053 96.09 721.443 93.75C720.833 91.41 720.003 89.5 719.603 89.5C719.213 89.5 717.853 93.44 716.583 98.25C715.313 103.06 713.603 109.36 712.773 112.25ZM377.403 103.5V117.5H373.573C371.463 117.5 369.433 117.2 369.073 116.83C368.703 116.47 368.403 106.77 368.403 95.28V74.4L373.563 74.7L378.723 75L388.313 87.72C393.583 94.71 398.243 100.45 398.653 100.47C399.063 100.49 399.403 94.65 399.403 87.5V74.5H408.443L408.173 95.75L407.903 117L403.803 117.3L399.693 117.6L389.303 103.59C383.583 95.88 378.563 89.56 378.153 89.54C377.743 89.52 377.403 95.8 377.403 103.5ZM525.903 89.33L524.903 117L521.363 117.3C519.423 117.46 517.513 117.27 517.113 116.88C516.723 116.49 516.403 106.79 516.403 95.33V74.5H526.113L535.983 87.5C541.403 94.65 546.193 100.5 546.623 100.5C547.053 100.5 547.403 94.65 547.403 87.5V74.5H556.443L555.903 117L551.733 117.3L547.553 117.61L538.823 105.8C534.013 99.31 529.143 92.95 527.993 91.67L525.903 89.33ZM458.023 113.5C456.483 117.34 456.233 117.5 451.913 117.5C448.953 117.5 447.413 117.07 447.443 116.25C447.463 115.56 451.223 106 455.793 95L464.093 75L469.573 74.71L475.053 74.41L483.163 94.21C487.623 105.09 491.413 114.68 491.583 115.5C491.823 116.61 490.803 117.08 487.603 117.31C483.433 117.61 483.253 117.5 481.603 113.57L479.903 109.52L459.623 109.5L458.023 113.5ZM618.363 96.25L610.043 117.5H604.843C601.853 117.5 599.243 116.97 598.703 116.25C597.913 115.21 591.743 99.81 580.473 70.75L578.433 65.5H589.063L596.403 85C600.443 95.72 604.063 104.5 604.463 104.5C604.853 104.5 608.453 95.72 612.453 85L619.733 65.5H630.373L628.523 70.25C627.513 72.86 622.933 84.56 618.363 96.25ZM686.523 109.5L685.903 117L670.843 117.28C662.563 117.43 655.473 117.24 655.093 116.86C654.713 116.48 654.403 106.79 654.403 95.33V74.5H686.523L685.903 82L674.593 82.28L663.293 82.57L663.593 86.78L663.903 91L674.653 91.28L685.403 91.57V99.5H663.403V109.5H686.523ZM349.403 115.98C346.083 117.69 337.673 118.55 333.743 117.57C328.083 116.17 323.973 113.09 321.653 108.52C319.623 104.51 319.403 102.64 319.403 89.29V74.5H328.403V88.45C328.403 104.06 329.103 106.66 333.943 108.95C339.423 111.55 344.003 110.61 347.633 106.13C349.093 104.33 349.363 101.71 349.383 89.25L349.403 74.5H358.403V89.43C358.403 97.65 357.923 105.64 357.333 107.18C356.033 110.62 352.763 114.25 349.403 115.98ZM283.903 109.09C288.133 110.97 291.393 110.8 295.163 108.51C304.103 103.05 304.953 90.01 296.793 83.59C294.843 82.06 292.693 81.5 288.753 81.5C284.023 81.5 282.923 81.91 279.643 84.92C276.003 88.25 275.903 88.54 275.903 95.34C275.903 101.42 276.233 102.7 278.403 105.05C279.783 106.54 282.253 108.36 283.903 109.09ZM436.403 82.6V117.5H432.573C430.463 117.5 428.433 117.2 428.073 116.83C427.703 116.47 427.403 108.59 427.403 99.33V82.5H422.483C415.523 82.5 414.403 81.86 414.403 77.89V74.5H449.523L448.903 82L442.653 82.3L436.403 82.6ZM644.403 74.5V117.5H640.573C638.463 117.5 636.433 117.2 636.073 116.83C635.703 116.47 635.403 106.79 635.403 95.33V74.5H644.403ZM506.443 74.5L505.903 117L502.363 117.3C500.423 117.46 498.513 117.27 498.113 116.88C497.723 116.49 497.403 106.79 497.403 95.33V74.5H506.443ZM463.403 100.17C463.403 101.7 474.903 102.12 475.823 100.62C476.613 99.36 470.263 84.24 469.343 85.2C468.263 86.33 463.403 98.57 463.403 100.17Z" fill="#060606"/>
<path d="M114.902 181.56C104.652 184.22 86.5425 184.93 76.9025 183.06C39.1325 175.73 10.8825 148.97 1.7325 111.85C-0.5775 102.47 -0.5775 80.53 1.7325 71.15C8.7625 42.63 26.0625 21.04 51.9025 8.54C67.1025 1.19 72.8025 0 92.9025 0C107.562 0.01 110.972 0.32 117.692 2.26C147.122 10.78 170.582 33.6 180.652 63.5C183.792 72.83 183.842 73.34 183.842 91.5C183.842 109.66 183.792 110.17 180.652 119.5C170.282 150.3 145.602 173.59 114.902 181.56ZM82.2125 175.48C90.1425 176.73 103.802 175.82 113.082 173.41C121.572 171.21 135.182 165 139.792 161.23L142.682 158.86L130.613 139.97C136.773 149.58 141.933 157.43 142.423 157.92C143.423 158.92 148.402 154.99 148.402 153.19C148.402 152.8 144.972 147.15 140.332 139.73C145.422 147.73 148.962 153.26 149.082 153.42C149.502 153.96 154.402 149.39 154.402 148.46C154.402 148.09 150.742 141.98 146.272 134.89C144.712 132.42 142.052 128.19 138.732 122.92C142.862 129.44 146.662 135.42 150.212 140.97L154.673 147.94L160.202 141.32L148.473 122.63C154.923 132.81 160.062 140.5 160.452 140.5C161.422 140.5 167.562 130.33 169.382 125.71C170.632 122.53 170.482 122.11 164.692 112.71C162.132 108.56 159.832 104.82 157.762 101.49C161.322 107.18 164.643 112.45 166.283 115L170.783 122L172.482 116.5C173.792 112.28 173.942 110.89 173.092 109.72C174.892 111.23 175.842 106.33 176.182 94C176.502 82.64 176.232 79.77 174.042 71.28C170.852 58.92 166.822 50.51 159.322 40.55C150.282 28.56 137.362 18.6 123.602 13C103.402 4.8 74.2425 5.97 54.9025 15.76C21.8725 32.48 3.4725 67.97 8.7325 104.81C9.2125 108.17 10.0125 110.46 10.6225 110.26C11.0425 110.12 14.8325 104.53 19.9725 96.55C17.4425 100.62 14.9325 104.69 12.6025 108.54C10.4525 112.08 10.3825 112.65 11.6125 116.87C12.4725 119.82 13.3425 121.16 14.0825 120.7C14.7125 120.31 21.1525 110.54 28.3925 98.99C33.4125 90.99 37.9525 83.94 40.3825 80.32C37.8325 84.12 32.9525 91.73 27.5325 100.39L13.5125 122.78L16.5825 128.89C18.2725 132.25 20.5325 136.24 21.5925 137.75C22.6625 139.26 23.8425 140.5 24.2225 140.5C24.4625 140.5 28.6025 134.26 33.6425 126.47L24.2425 141.47L26.3925 144.48C27.5725 146.14 28.9225 147.5 29.3925 147.5C29.8225 147.5 34.6525 140.44 40.4725 131.34C35.6125 139.08 32.4125 144.2 31.9125 145.04L29.9225 148.36L32.3525 150.94C33.6825 152.36 35.1325 153.17 35.5525 152.75C35.9525 152.35 42.3825 142.44 50.2425 130.11L35.1225 153.86L37.7725 156.14C39.2325 157.4 40.9825 158.21 41.6625 157.94C42.2125 157.72 46.3625 151.75 51.5825 143.76L41.9925 158.76L44.9425 161.18C52.2425 167.15 68.2225 173.28 82.2125 175.48ZM448.402 151C448.402 154.33 448.012 155.5 446.902 155.5C445.652 155.5 445.402 153.5 445.402 143.5V131.5H452.842C459.402 131.5 460.472 131.76 461.842 133.72C462.702 134.94 463.402 137.09 463.402 138.5C463.402 141.59 460.843 145.5 458.823 145.5C457.543 145.5 457.553 145.86 458.883 148.25C459.723 149.76 461.143 152.01 462.033 153.25C463.563 155.38 463.533 155.5 461.562 155.5C460.163 155.5 458.633 154.05 456.853 151C454.683 147.3 453.692 146.5 451.302 146.5C448.532 146.5 448.402 146.7 448.402 151ZM486.402 147.44C486.402 154.83 486.232 155.5 484.402 155.5C482.512 155.5 482.402 154.83 482.402 143.43V131.37L485.103 131.68C487.443 131.96 488.203 133.01 490.853 139.63C492.533 143.82 494.322 147.34 494.822 147.45C495.332 147.55 497.162 144.12 498.882 139.82C501.312 133.73 502.492 131.93 504.202 131.68C506.362 131.37 506.402 131.57 506.402 143.43C506.402 153.49 506.152 155.5 504.902 155.5C503.682 155.5 503.393 153.85 503.363 146.75C503.333 138.68 503.223 138.2 501.913 140.5C501.143 141.88 499.492 145.81 498.262 149.25C497.042 152.69 495.542 155.5 494.952 155.5C494.352 155.5 492.573 152.11 490.993 147.97C489.413 143.83 487.732 140.2 487.262 139.91C486.792 139.62 486.402 143.01 486.402 147.44ZM332.402 151C332.402 154.33 332.012 155.5 330.902 155.5C329.652 155.5 329.402 153.5 329.402 143.5V131.5H336.402C344.482 131.5 347.402 133.37 347.402 138.55C347.402 143.44 343.572 146.5 337.452 146.5H332.402V151ZM529.583 153C528.413 155.57 525.373 156.49 525.443 154.25C525.463 153.56 527.443 148.27 529.853 142.5C533.493 133.76 534.612 131.95 536.562 131.71C538.602 131.46 539.233 132.28 541.543 138.21C543.003 141.95 545.133 147.36 546.283 150.25C548.273 155.23 548.283 155.5 546.553 155.5C545.543 155.5 544.213 154.38 543.583 153C542.563 150.75 541.863 150.5 536.583 150.5C531.303 150.5 530.613 150.75 529.583 153ZM408.992 153C408.572 154.66 407.672 155.5 406.302 155.5C405.162 155.5 404.383 155.11 404.573 154.64C415.553 126.32 415.912 126.09 422.762 142.82C425.312 149.05 427.402 154.45 427.402 154.82C427.402 156.6 424.233 155.21 423.223 153C422.183 150.72 421.523 150.5 415.853 150.5C410.043 150.5 409.572 150.67 408.992 153ZM369.402 150C369.402 154.22 369.052 155.5 367.902 155.5C367.072 155.5 366.382 155.27 366.362 155C366.342 154.73 366.313 149.44 366.293 143.25C366.253 133.79 366.503 131.95 367.823 131.68C369.093 131.42 369.402 132.34 369.402 136.43V141.5H383.402V136.5C383.402 132.72 383.772 131.5 384.902 131.5C386.152 131.5 386.402 133.5 386.402 143.5C386.402 153.5 386.152 155.5 384.902 155.5C383.752 155.5 383.402 154.22 383.402 150V144.5H369.402V150ZM583.743 153.6C578.333 159.01 567.073 155.61 564.593 147.82C562.773 142.12 564.363 136.37 568.603 133.36C572.923 130.28 580.582 130.24 583.622 133.28C586.542 136.2 585.243 137.13 581.033 135.13C576.123 132.8 573.653 133.1 570.323 136.42C562.323 144.42 571.663 157.59 581.303 151.9C585.013 149.71 586.553 150.79 583.743 153.6ZM614.403 150.74C614.403 154.3 614.023 155.5 612.903 155.5C611.763 155.5 611.403 154.27 611.403 150.39C611.403 145.95 610.813 144.43 606.903 138.84C604.433 135.3 602.403 132.2 602.403 131.95C602.403 131.7 603.193 131.5 604.153 131.5C605.133 131.5 607.143 133.47 608.743 136C610.303 138.47 611.953 140.72 612.403 141C612.843 141.27 614.833 139.25 616.803 136.5C618.783 133.75 621.073 131.5 621.903 131.5C624.033 131.5 623.913 131.8 618.903 139.27C615.143 144.88 614.403 146.76 614.403 150.74ZM449.073 142.83C449.903 143.67 454.713 143.7 456.853 142.88C459.403 141.9 460.642 138.81 459.402 136.5C458.552 134.91 457.312 134.5 453.362 134.5H448.402V138.33C448.402 140.44 448.703 142.47 449.073 142.83ZM333.073 142.83C334.213 143.98 339.933 143.56 341.793 142.2C342.983 141.34 343.462 139.91 343.242 137.95C342.922 135.15 342.642 134.99 337.652 134.7L332.402 134.4V138.28C332.402 140.42 332.703 142.47 333.073 142.83ZM533.413 142.46L531.433 147.5H536.523C540.193 147.5 541.482 147.15 541.122 146.25C538.002 138.41 537.053 136.5 536.293 136.5C535.803 136.5 535.403 136.71 535.403 136.96C535.403 137.22 534.513 139.69 533.413 142.46ZM411.982 145.25C411.312 147.36 411.553 147.5 415.943 147.5C421.193 147.5 421.263 147.16 417.793 138.94L416.133 135L414.413 139C413.463 141.21 412.372 144.02 411.982 145.25ZM93.0225 50.75C92.1325 50.33 87.5025 56.9 74.4225 77.44C87.6525 56.39 92.0525 50.1 93.0225 50.75ZM52.4825 126.59C61.1225 113.03 68.5325 102.04 69.0125 102.08C69.5025 102.12 74.8525 110.11 80.9025 119.82C74.8525 110.11 69.4525 102.2 68.9025 102.26C68.3725 102.31 61.0825 113.13 52.4825 126.59ZM47.7425 85.36C45.0525 81.07 42.6525 77.73 42.2425 77.76C42.8125 77.61 45.3125 81.29 47.7425 85.36ZM62.3825 127.11C66.0325 121.64 68.6325 118 68.9625 118C69.4825 118 74.8425 125.95 80.8925 135.66C74.8425 125.95 69.4525 118.04 68.9125 118.09C68.5725 118.13 65.9925 121.71 62.3825 127.11ZM128.613 136.85C121.903 126.39 116.223 117.97 115.753 117.78C116.223 117.94 121.963 126.46 128.613 136.85ZM52.3725 96.5C52.5925 96.01 52.7225 95.55 52.6925 95.02C52.8125 95.41 52.8525 95.69 52.7825 95.81C52.7425 95.89 52.6025 96.12 52.3725 96.5ZM139.372 108.06C134.652 100.44 131.402 95.03 131.402 94.78C131.402 94.77 131.402 94.77 131.402 94.77C131.442 95.08 134.692 100.49 139.372 108.06ZM162.632 93.53C161.132 91.15 159.532 88.61 157.912 86C159.542 88.61 161.132 91.15 162.632 93.53ZM34.0725 74.36C36.8725 70.04 39.2025 66.56 40.7225 64.43C39.2125 66.57 36.8725 70.06 34.0725 74.36ZM100.782 62.59C97.8325 57.97 95.5425 54.43 94.2525 52.47C95.5625 54.45 97.8725 58.03 100.782 62.59ZM42.5925 62.12C42.5925 62.12 42.5925 62.12 42.6025 62.12C42.9625 62.34 46.0925 67.07 49.7425 72.87C46.1325 67.13 43.0125 62.43 42.5925 62.12Z" fill="#A3171F"/>
</svg>
